<?xml version="1.0" standalone="no"?>
<!DOCTYPE svg PUBLIC "-//W3C//DTD SVG 20010904//EN"
 "http://www.w3.org/TR/2001/REC-SVG-20010904/DTD/svg10.dtd">
<svg version="1.0" xmlns="http://www.w3.org/2000/svg"
 width="700.000000pt" height="700.000000pt" viewBox="0 0 700.000000 700.000000"
 preserveAspectRatio="xMidYMid meet">
<metadata>
Created by potrace 1.14, written by Peter Selinger 2001-2017
</metadata>
<g transform="translate(0.000000,700.000000) scale(0.100000,-0.100000)"
fill="#000000" stroke="none">
<path d="M3383 6985 c-69 -19 -126 -58 -149 -100 -16 -31 -17 -40 -5 -97 7
-35 39 -137 72 -228 41 -115 55 -166 46 -169 -6 -2 -24 -16 -39 -31 -30 -30
-43 -83 -34 -134 7 -34 48 -88 74 -97 11 -4 10 -24 -3 -109 -9 -58 -18 -112
-21 -121 -3 -12 -29 -19 -107 -28 -436 -52 -882 -238 -1205 -502 -40 -33 -79
-59 -86 -57 -6 2 -55 32 -109 68 -81 55 -95 68 -89 85 4 11 7 37 6 59 0 33 -7
45 -48 83 -47 45 -49 46 -101 40 l-53 -5 -32 76 c-56 135 -132 281 -165 319
-29 34 -36 37 -83 36 -31 0 -69 -10 -99 -24 -64 -30 -178 -145 -205 -206 -29
-65 -30 -142 -2 -180 24 -32 135 -94 297 -164 l111 -48 1 -56 c1 -62 20 -95
76 -133 33 -23 68 -25 109 -9 20 8 157 -191 144 -209 -5 -6 -44 -58 -88 -115
-258 -341 -434 -789 -473 -1201 -5 -59 -9 -69 -27 -73 -55 -11 -228 -37 -229
-34 -18 35 -29 48 -57 66 -38 26 -86 29 -135 9 -27 -12 -45 -31 -71 -74 0 -1
-41 13 -90 31 -146 56 -311 107 -346 107 -72 0 -125 -59 -154 -171 -41 -159
25 -348 130 -375 31 -7 141 23 315 86 75 28 139 50 142 50 3 0 11 -12 17 -26
7 -15 31 -33 58 -45 65 -29 117 -19 167 33 l38 40 117 -18 116 -19 13 -105
c36 -294 116 -556 245 -809 61 -120 193 -323 274 -423 l47 -58 -63 -94 -62
-95 -47 6 c-60 7 -102 -13 -137 -67 -23 -34 -26 -48 -21 -88 l6 -47 -47 -19
c-111 -45 -313 -147 -346 -176 -33 -30 -36 -36 -36 -89 0 -112 89 -244 203
-301 69 -34 142 -40 182 -14 36 24 90 118 161 282 l63 146 53 -2 c68 -3 108
21 138 82 18 39 20 51 11 78 -6 17 -9 34 -6 36 3 3 49 36 102 72 l96 67 80
-64 c333 -267 751 -443 1184 -500 l130 -16 17 -111 c20 -135 20 -146 2 -146
-22 0 -63 -60 -71 -101 -5 -27 -1 -50 14 -83 11 -25 24 -46 28 -46 4 0 16 -7
27 -15 17 -13 16 -20 -33 -153 -64 -178 -94 -287 -87 -318 10 -39 63 -90 117
-114 171 -73 429 5 429 131 0 37 -40 171 -95 319 -34 92 -43 126 -33 129 28 9
67 60 73 94 4 21 4 52 1 71 -7 34 -48 88 -74 97 -11 4 -10 24 3 109 23 147 16
136 88 144 105 11 247 36 348 62 308 77 659 251 896 445 40 32 77 59 83 59 6
0 55 -30 110 -67 73 -50 97 -72 92 -83 -3 -8 -6 -35 -6 -58 0 -39 5 -49 48
-89 47 -45 49 -46 101 -40 l53 5 23 -56 c49 -126 148 -318 178 -347 116 -109
414 97 415 288 0 31 -7 56 -20 73 -29 39 -124 93 -282 159 l-142 60 6 40 c8
61 -28 124 -89 154 -42 20 -51 22 -77 11 -17 -7 -32 -11 -34 -9 -14 17 -136
198 -136 203 0 3 26 39 59 79 266 328 454 781 502 1207 7 58 13 106 13 107 1
1 49 9 106 18 58 9 113 18 122 21 11 3 22 -5 34 -25 27 -46 71 -65 134 -59 46
5 59 11 87 42 18 20 37 36 41 36 4 0 70 -23 147 -51 77 -28 173 -59 213 -70
65 -16 77 -17 107 -5 61 26 108 109 122 218 12 95 -67 274 -137 310 -35 17
-38 17 -110 -2 -72 -20 -266 -87 -333 -115 -30 -12 -32 -12 -49 15 -26 44 -71
63 -136 58 -46 -4 -60 -10 -82 -35 -15 -17 -29 -35 -31 -41 -3 -6 -47 -3 -123
9 -66 11 -121 21 -122 22 -1 1 -7 47 -14 102 -53 455 -250 913 -538 1255 l-30
35 70 102 70 102 47 -6 c60 -7 102 14 137 67 23 34 26 48 21 88 l-5 47 81 34
c93 39 284 134 308 153 52 42 53 127 4 226 -42 83 -85 124 -174 165 -70 33
-139 40 -178 19 -32 -17 -88 -116 -160 -281 -39 -89 -68 -145 -76 -143 -6 2
-29 4 -49 4 -94 -1 -155 -83 -136 -184 2 -12 -26 -38 -96 -86 l-99 -69 -80 64
c-332 266 -753 444 -1180 499 l-134 17 -17 111 c-20 135 -20 146 -2 146 19 0
52 43 66 85 19 58 -10 132 -65 163 -16 8 -13 21 33 150 65 178 95 287 88 318
-10 39 -63 90 -118 114 -67 29 -191 36 -265 15z m172 -1380 c19 -18 25 -35 25
-65 0 -86 -90 -121 -152 -60 -26 27 -30 36 -25 68 12 76 101 109 152 57z m210
-426 c141 -21 321 -75 457 -137 122 -55 310 -175 407 -258 2 -2 -24 -33 -59
-70 -51 -56 -61 -71 -58 -95 4 -24 -6 -38 -63 -95 l-68 -68 -83 0 c-69 -1 -93
-6 -141 -28 -81 -38 -185 -141 -228 -225 -31 -60 -34 -75 -34 -150 0 -79 1
-84 31 -114 111 -111 378 5 485 211 30 59 34 74 35 153 l1 88 64 65 c54 54 69
64 98 64 30 0 45 10 98 62 34 34 64 60 66 57 234 -266 384 -605 422 -956 l7
-63 -96 0 c-90 0 -99 -2 -122 -25 -22 -22 -33 -25 -103 -25 l-79 0 -27 38
c-16 20 -42 52 -58 70 l-31 32 -272 0 c-269 0 -273 0 -298 -22 -13 -13 -27
-33 -31 -45 l-6 -23 270 0 c260 0 271 -1 281 -20 8 -14 8 -26 0 -40 -10 -19
-21 -20 -281 -20 l-270 0 3 -32 3 -33 273 -3 c250 -2 272 -4 273 -20 2 -29 -3
-47 -14 -54 -7 -4 -130 -8 -274 -8 -160 0 -263 -4 -263 -10 0 -23 24 -59 47
-69 15 -7 116 -11 290 -11 l266 0 32 34 c18 19 45 55 61 80 l29 46 71 0 c62 0
73 -3 94 -25 22 -23 30 -25 122 -25 l99 0 -6 -62 c-36 -367 -154 -664 -364
-917 l-53 -63 -64 63 c-49 49 -69 62 -92 61 -23 0 -43 13 -97 68 l-68 68 -1
84 c-1 109 -33 176 -127 271 -114 115 -254 162 -351 120 -61 -28 -82 -72 -76
-163 10 -135 124 -286 268 -354 55 -26 77 -31 142 -31 l78 0 68 -68 c57 -56
68 -73 64 -94 -4 -20 7 -37 59 -90 l64 -65 -50 -44 c-120 -108 -337 -232 -508
-293 -139 -49 -230 -69 -424 -96 l-43 -5 0 100 c0 95 -2 102 -25 124 -22 21
-25 31 -25 98 l0 74 70 57 70 57 0 280 0 281 -25 24 c-13 14 -33 25 -44 25
-20 0 -21 -6 -23 -277 l-3 -278 -35 0 -35 0 -3 271 -2 271 67 17 c113 27 189
71 273 155 130 131 175 248 168 436 -6 136 -34 218 -111 320 -185 247 -530
301 -788 125 l-58 -39 11 30 c31 90 -31 248 -136 347 -93 87 -160 117 -264
118 l-84 1 -69 69 c-57 56 -67 72 -62 92 5 20 -6 35 -62 92 l-67 68 75 60
c232 184 529 313 819 356 163 24 148 33 148 -83 0 -94 1 -101 25 -119 22 -18
25 -27 25 -90 l0 -70 -65 -47 c-101 -72 -96 -52 -93 -363 3 -249 4 -272 22
-291 11 -12 31 -21 48 -21 l28 0 0 286 0 285 33 -3 32 -3 3 -277 2 -278 40 0
40 0 2 278 3 277 35 0 35 0 3 -277 c2 -272 3 -278 23 -278 11 0 31 11 44 25
l25 24 0 279 0 279 -43 40 c-24 22 -56 48 -70 58 -25 16 -27 22 -27 94 0 70 3
80 25 101 23 22 25 30 25 122 l0 98 43 -5 c23 -4 74 -11 112 -16z m-1654 -168
c38 -38 40 -91 5 -126 -50 -50 -116 -40 -142 21 -42 100 62 179 137 105z
m2890 0 c64 -64 6 -175 -81 -156 -35 8 -56 31 -64 71 -20 95 78 152 145 85z
m-2710 -447 c55 -53 73 -64 90 -59 17 6 35 -6 94 -65 70 -69 72 -74 64 -104
-24 -81 33 -226 127 -320 78 -78 185 -130 268 -131 33 0 71 4 84 8 21 8 19 3
-14 -40 -37 -48 -84 -137 -84 -160 0 -19 -14 -16 -35 7 -17 19 -31 20 -298 20
l-280 0 -39 -42 c-22 -24 -47 -55 -56 -70 -16 -27 -20 -28 -94 -28 -69 0 -80
3 -102 25 -23 23 -32 25 -122 25 l-96 0 7 63 c34 315 170 642 366 882 24 30
46 54 48 55 3 0 35 -30 72 -66z m1329 -719 c61 -21 136 -80 177 -139 115 -167
67 -404 -104 -514 -183 -117 -430 -49 -528 145 -28 53 -30 66 -30 163 0 90 4
112 24 152 87 176 279 256 461 193z m-720 -224 c0 -5 -3 -23 -6 -40 l-6 -31
-258 0 c-280 0 -289 2 -276 55 l6 25 270 0 c149 0 270 -4 270 -9z m-1393 -55
c61 -53 21 -156 -62 -156 -21 0 -44 9 -62 24 -61 53 -21 156 62 156 21 0 44
-9 62 -24z m4098 -1 c56 -56 18 -155 -60 -155 -48 0 -95 45 -95 90 0 76 102
119 155 65z m-2677 -161 c15 -80 57 -173 106 -238 21 -26 32 -45 26 -41 -27
17 -87 23 -134 14 -129 -24 -262 -128 -327 -256 -30 -60 -34 -76 -34 -150 l-1
-83 -64 -65 c-52 -53 -70 -65 -96 -65 -26 0 -44 -13 -107 -77 -42 -43 -78 -75
-80 -73 -232 262 -393 627 -423 963 l-7 77 97 0 c90 0 99 2 122 25 22 22 34
25 93 25 l69 0 30 -47 c17 -27 46 -63 65 -81 l34 -33 277 3 278 3 19 24 c10
13 19 32 19 42 0 18 -12 19 -251 19 -153 0 -258 4 -270 10 -18 10 -26 50 -12
63 3 4 131 7 282 7 l276 0 13 -66z m297 -440 c59 -27 157 -54 197 -54 l28 0
-2 -272 -3 -273 -32 -3 -33 -3 0 270 c0 179 -4 272 -11 276 -20 13 -59 -5 -74
-35 -12 -24 -15 -77 -15 -296 l0 -266 38 -35 c20 -19 56 -46 79 -61 l43 -27 0
-71 c0 -62 -3 -73 -25 -94 -23 -22 -25 -30 -25 -122 l0 -98 -42 5 c-141 19
-195 30 -298 57 -235 61 -448 169 -639 324 l-60 48 65 68 c57 59 65 71 60 95
-6 25 2 36 59 93 l66 65 82 0 c73 0 90 4 151 34 91 45 182 135 227 226 28 56
34 80 34 134 0 36 -4 76 -8 89 -8 21 -3 19 40 -14 26 -20 71 -47 98 -60z
m-1135 -829 c59 -30 68 -98 21 -146 -39 -39 -87 -40 -123 -1 -37 38 -43 70
-18 110 31 50 71 62 120 37z m2883 4 c63 -32 75 -102 28 -150 -51 -51 -125
-32 -152 38 -27 71 57 146 124 112z m-1433 -614 c31 -16 43 -43 42 -89 -2 -75
-105 -106 -156 -45 -40 47 -29 109 24 136 33 17 55 16 90 -2z"/>
</g>
</svg>
