<svg width="20" height="20" viewBox="0 0 20 20" fill="none" xmlns="http://www.w3.org/2000/svg">
<g clip-path="url(#clip0_61740_32)">
<path d="M16.4805 2.43359L13.6367 1.77734C13.3359 1.69531 13.0078 1.85938 12.8711 2.16016L11.5586 5.22266C11.4492 5.49609 11.5312 5.79688 11.75 5.98828L13.418 7.35547C12.4336 9.43359 10.7109 11.1836 8.57812 12.1953L7.21094 10.5273C7.01953 10.3086 6.71875 10.2266 6.44531 10.3359L3.38281 11.6484C3.08203 11.7852 2.94531 12.1133 3 12.4141L3.65625 15.2578C3.73828 15.5586 3.98438 15.75 4.3125 15.75C11.3125 15.75 17 10.0898 17 3.0625C17 2.76172 16.7812 2.51562 16.4805 2.43359Z" fill="#E8C300"/>
</g>
<defs>
<clipPath id="clip0_61740_32">
<rect width="20" height="20" fill="white"/>
</clipPath>
</defs>
</svg>
