<svg width="20" height="20" viewBox="0 0 20 20" fill="none" xmlns="http://www.w3.org/2000/svg">
<g clip-path="url(#clip0_61740_30)">
<path d="M16.7266 6.97266C16.0977 7.46484 15.3047 8.06641 12.5156 10.0898C11.9688 10.5 10.957 11.4023 10 11.4023C9.01562 11.4023 8.03125 10.5 7.45703 10.0898C4.66797 8.06641 3.875 7.46484 3.24609 6.97266C3.13672 6.89062 3 6.97266 3 7.10938V12.6875C3 13.4258 3.57422 14 4.3125 14H15.6875C16.3984 14 17 13.4258 17 12.6875V7.10938C17 6.97266 16.8359 6.89062 16.7266 6.97266ZM10 10.5C10.6289 10.5273 11.5312 9.70703 11.9961 9.37891C15.6328 6.75391 15.9062 6.50781 16.7266 5.85156C16.8906 5.74219 17 5.55078 17 5.33203V4.8125C17 4.10156 16.3984 3.5 15.6875 3.5H4.3125C3.57422 3.5 3 4.10156 3 4.8125V5.33203C3 5.55078 3.08203 5.74219 3.24609 5.85156C4.06641 6.50781 4.33984 6.75391 7.97656 9.37891C8.44141 9.70703 9.34375 10.5273 10 10.5Z" fill="#E8C300"/>
</g>
<defs>
<clipPath id="clip0_61740_30">
<rect width="20" height="20" fill="white"/>
</clipPath>
</defs>
</svg>
