<svg width="20" height="20" viewBox="0 0 20 20" fill="none" xmlns="http://www.w3.org/2000/svg">
<g clip-path="url(#clip0_61740_34)">
<path d="M9.45312 15.4766C9.69922 15.8594 10.2734 15.8594 10.5195 15.4766C14.5117 9.73438 15.25 9.13281 15.25 7C15.25 4.10156 12.8984 1.75 10 1.75C7.07422 1.75 4.75 4.10156 4.75 7C4.75 9.13281 5.46094 9.73438 9.45312 15.4766ZM10 9.1875C8.76953 9.1875 7.8125 8.23047 7.8125 7C7.8125 5.79688 8.76953 4.8125 10 4.8125C11.2031 4.8125 12.1875 5.79688 12.1875 7C12.1875 8.23047 11.2031 9.1875 10 9.1875Z" fill="#E8C300"/>
</g>
<defs>
<clipPath id="clip0_61740_34">
<rect width="20" height="20" fill="white"/>
</clipPath>
</defs>
</svg>
